<svg xmlns="http://www.w3.org/2000/svg" version="1.1" xmlns:xlink="http://www.w3.org/1999/xlink" xmlns:svgjs="http://svgjs.dev/svgjs" width="1000" height="1000" viewBox="0 0 1000 1000"><rect width="1000" height="1000" fill="#000000"></rect><g transform="matrix(0.7,0,0,0.7,149.57576938530713,355.41669746206844)"><svg viewBox="0 0 396 164" data-background-color="#fb8c3c" preserveAspectRatio="xMidYMid meet" height="414" width="1000" xmlns="http://www.w3.org/2000/svg" xmlns:xlink="http://www.w3.org/1999/xlink"><g id="tight-bounds" transform="matrix(1,0,0,1,0.23999331916911615,-0.1792214761187978)"><svg viewBox="0 0 395.52 164.35844225638184" height="164.35844225638184" width="395.52"><g><svg viewBox="0 0 395.52 164.35844225638184" height="164.35844225638184" width="395.52"><g transform="matrix(1,0,0,1,0,132.80075287554476)"><svg viewBox="0 0 395.52 31.557689380837076" height="31.557689380837076" width="395.52"><g id="textblocktransform"><svg viewBox="0 0 395.52 31.557689380837076" height="31.557689380837076" width="395.52" id="textblock"><g><svg viewBox="0 0 395.52 31.557689380837076" height="31.557689380837076" width="395.52"><g transform="matrix(1,0,0,1,0,0)"><svg width="395.52" viewBox="2.25 -34.29999923706055 433.6099853515625 34.599998474121094" height="31.557689380837076" data-palette-color="#ffffff"><path d="M17.05-34.3Q20.8-34.3 23.45-33.1 26.1-31.9 27.83-29.7 29.55-27.5 30.35-24.33 31.15-21.15 31.15-17.2L31.15-17.2Q31.15-13.3 30.28-10.08 29.4-6.85 27.58-4.55 25.75-2.25 22.98-0.98 20.2 0.3 16.4 0.3L16.4 0.3Q12.65 0.3 9.98-0.83 7.3-1.95 5.58-4.13 3.85-6.3 3.05-9.4 2.25-12.5 2.25-16.5L2.25-16.5Q2.25-20.4 3.13-23.68 4-26.95 5.83-29.33 7.65-31.7 10.45-33 13.25-34.3 17.05-34.3L17.05-34.3ZM16.35-29.7Q14.15-29.7 12.7-28.73 11.25-27.75 10.35-26.05 9.45-24.35 9.08-22.05 8.7-19.75 8.7-17.05L8.7-17.05Q8.7-14.5 9.05-12.2 9.4-9.9 10.33-8.15 11.25-6.4 12.88-5.35 14.5-4.3 17.1-4.3L17.1-4.3Q19.25-4.3 20.73-5.25 22.2-6.2 23.1-7.85 24-9.5 24.38-11.78 24.75-14.05 24.75-16.7L24.75-16.7Q24.75-19.25 24.4-21.6 24.05-23.95 23.13-25.75 22.2-27.55 20.58-28.63 18.95-29.7 16.35-29.7L16.35-29.7ZM36.9 0L36.9-33.85Q37.25-33.85 38.5-33.88 39.75-33.9 41.3-33.9 42.85-33.9 44.4-33.93 45.95-33.95 46.95-33.95L46.95-33.95Q53.15-33.95 56-31.53 58.85-29.1 58.85-24.7L58.85-24.7Q58.85-21.8 57.4-19.55 55.95-17.3 52.65-16.3L52.65-16.3Q54.05-15.5 55.15-14.1 56.25-12.7 57.3-10.68 58.35-8.65 59.45-5.98 60.55-3.3 62 0L62 0 55.55 0Q53.85-3.95 52.57-6.75 51.3-9.55 50.1-11.3 48.9-13.05 47.52-13.85 46.15-14.65 44.3-14.65L44.3-14.65 42.85-14.65 42.85 0 36.9 0ZM42.85-29.7L42.85-19 46.7-19Q49.5-19 51.02-20.25 52.55-21.5 52.55-23.95L52.55-23.95Q52.55-25.05 52.25-26.1 51.95-27.15 51.22-27.95 50.5-28.75 49.27-29.23 48.05-29.7 46.2-29.7L46.2-29.7 42.85-29.7ZM65.59 0L65.59-33.85Q65.95-33.85 67.09-33.88 68.25-33.9 69.7-33.9 71.15-33.9 72.7-33.93 74.25-33.95 75.4-33.95L75.4-33.95Q83.9-33.95 88-29.73 92.09-25.5 92.09-17.15L92.09-17.15Q92.09-8.8 87.9-4.35 83.7 0.1 74.75 0.1L74.75 0.1Q73.2 0.1 71.72 0.08 70.25 0.05 69.02 0.05 67.8 0.05 66.9 0.03 66 0 65.59 0L65.59 0ZM74.7-29.5Q73.55-29.5 72.77-29.48 72-29.45 71.55-29.45L71.55-29.45 71.55-4.4Q72.09-4.35 72.97-4.35 73.84-4.35 75.5-4.35L75.5-4.35Q80.75-4.35 83.2-7.43 85.65-10.5 85.65-16.6L85.65-16.6Q85.65-19.5 85.07-21.88 84.5-24.25 83.17-25.95 81.84-27.65 79.77-28.58 77.7-29.5 74.7-29.5L74.7-29.5ZM97.74 0L97.74-33.85 117.84-33.85 117.84-29.35 103.69-29.35 103.69-19.9 115.34-19.9 114.59-15.35 103.69-15.35 103.69-4.5 118.59-4.5 118.59 0 97.74 0ZM123.39 0L123.39-33.85Q123.74-33.85 124.99-33.88 126.24-33.9 127.79-33.9 129.34-33.9 130.89-33.93 132.44-33.95 133.44-33.95L133.44-33.95Q139.64-33.95 142.49-31.53 145.34-29.1 145.34-24.7L145.34-24.7Q145.34-21.8 143.89-19.55 142.44-17.3 139.14-16.3L139.14-16.3Q140.54-15.5 141.64-14.1 142.74-12.7 143.79-10.68 144.84-8.65 145.94-5.98 147.04-3.3 148.49 0L148.49 0 142.04 0Q140.34-3.95 139.07-6.75 137.79-9.55 136.59-11.3 135.39-13.05 134.02-13.85 132.64-14.65 130.79-14.65L130.79-14.65 129.34-14.65 129.34 0 123.39 0ZM129.34-29.7L129.34-19 133.19-19Q135.99-19 137.52-20.25 139.04-21.5 139.04-23.95L139.04-23.95Q139.04-25.05 138.74-26.1 138.44-27.15 137.72-27.95 136.99-28.75 135.77-29.23 134.54-29.7 132.69-29.7L132.69-29.7 129.34-29.7ZM171.84 0L171.84-12.95 161.34-33.85 167.79-33.85 174.89-18.5 182.14-33.85 188.44-33.85 177.79-12.7 177.79 0 171.84 0ZM202.98-34.3Q206.73-34.3 209.38-33.1 212.03-31.9 213.76-29.7 215.48-27.5 216.28-24.33 217.08-21.15 217.08-17.2L217.08-17.2Q217.08-13.3 216.21-10.08 215.33-6.85 213.51-4.55 211.68-2.25 208.91-0.98 206.13 0.3 202.33 0.3L202.33 0.3Q198.58 0.3 195.91-0.83 193.23-1.95 191.51-4.13 189.78-6.3 188.98-9.4 188.18-12.5 188.18-16.5L188.18-16.5Q188.18-20.4 189.06-23.68 189.93-26.95 191.76-29.33 193.58-31.7 196.38-33 199.18-34.3 202.98-34.3L202.98-34.3ZM202.28-29.7Q200.08-29.7 198.63-28.73 197.18-27.75 196.28-26.05 195.38-24.35 195.01-22.05 194.63-19.75 194.63-17.05L194.63-17.05Q194.63-14.5 194.98-12.2 195.33-9.9 196.26-8.15 197.18-6.4 198.81-5.35 200.43-4.3 203.03-4.3L203.03-4.3Q205.18-4.3 206.66-5.25 208.13-6.2 209.03-7.85 209.93-9.5 210.31-11.78 210.68-14.05 210.68-16.7L210.68-16.7Q210.68-19.25 210.33-21.6 209.98-23.95 209.06-25.75 208.13-27.55 206.51-28.63 204.88-29.7 202.28-29.7L202.28-29.7ZM222.33-33.85L228.23-33.85 228.23-12.9Q228.23-8.25 230.18-6.28 232.13-4.3 235.48-4.3L235.48-4.3Q238.88-4.3 240.51-6.58 242.13-8.85 242.13-12.9L242.13-12.9 242.13-33.85 248.08-33.85 248.08-12.45Q248.08-9.85 247.41-7.55 246.73-5.25 245.18-3.5 243.63-1.75 241.08-0.73 238.53 0.3 234.83 0.3L234.83 0.3Q231.28 0.3 228.91-0.73 226.53-1.75 225.06-3.5 223.58-5.25 222.96-7.55 222.33-9.85 222.33-12.45L222.33-12.45 222.33-33.85ZM254.58 0L254.58-33.85Q254.93-33.85 256.18-33.88 257.43-33.9 258.98-33.9 260.53-33.9 262.08-33.93 263.63-33.95 264.63-33.95L264.63-33.95Q270.83-33.95 273.68-31.53 276.53-29.1 276.53-24.7L276.53-24.7Q276.53-21.8 275.08-19.55 273.63-17.3 270.33-16.3L270.33-16.3Q271.73-15.5 272.83-14.1 273.93-12.7 274.98-10.68 276.03-8.65 277.13-5.98 278.23-3.3 279.68 0L279.68 0 273.23 0Q271.53-3.95 270.25-6.75 268.98-9.55 267.78-11.3 266.58-13.05 265.2-13.85 263.83-14.65 261.98-14.65L261.98-14.65 260.53-14.65 260.53 0 254.58 0ZM260.53-29.7L260.53-19 264.38-19Q267.18-19 268.7-20.25 270.23-21.5 270.23-23.95L270.23-23.95Q270.23-25.05 269.93-26.1 269.63-27.15 268.9-27.95 268.18-28.75 266.95-29.23 265.73-29.7 263.88-29.7L263.88-29.7 260.53-29.7ZM305.77-34.3L305.77-34.3Q307.52-34.3 309.12-33.98 310.72-33.65 312.05-33.23 313.37-32.8 314.3-32.35 315.22-31.9 315.57-31.65L315.57-31.65 313.12-27.35 312.47-27.7Q311.82-28.05 310.77-28.5 309.72-28.95 308.47-29.3 307.22-29.65 306.07-29.65L306.07-29.65Q304.27-29.65 302.95-28.8 301.62-27.95 301.62-26.15L301.62-26.15Q301.62-23.9 303.07-22.48 304.52-21.05 307.62-19.85L307.62-19.85Q309.62-19.05 311.2-18.18 312.77-17.3 313.87-16.15 314.97-15 315.55-13.5 316.12-12 316.12-9.9L316.12-9.9Q316.12-8 315.4-6.15 314.67-4.3 313.25-2.88 311.82-1.45 309.72-0.58 307.62 0.3 304.87 0.3L304.87 0.3Q302.92 0.3 301.17-0.1 299.42-0.5 298-1.03 296.57-1.55 295.55-2.1 294.52-2.65 294.02-2.95L294.02-2.95 296.12-7.55 297.02-7.05Q297.92-6.55 299.22-5.95 300.52-5.35 301.97-4.85 303.42-4.35 304.47-4.35L304.47-4.35Q307.12-4.35 308.42-5.65 309.72-6.95 309.72-9.3L309.72-9.3Q309.72-10.4 309.37-11.23 309.02-12.05 308.37-12.65 307.72-13.25 306.8-13.73 305.87-14.2 304.72-14.65L304.72-14.65Q302.47-15.6 300.7-16.55 298.92-17.5 297.67-18.73 296.42-19.95 295.77-21.53 295.12-23.1 295.12-25.3L295.12-25.3Q295.12-27.15 295.92-28.78 296.72-30.4 298.12-31.63 299.52-32.85 301.47-33.58 303.42-34.3 305.77-34.3ZM341.52-16.15L341.37-33.85 347.32-33.85 347.32 0.05 342.37 0.05 330.97-17.75Q330.02-19.2 328.9-21.03 327.77-22.85 326.77-24.4L326.77-24.4Q326.92-22.8 327.05-21.05 327.17-19.3 327.17-17.7L327.17-17.7 327.32 0 321.37 0 321.37-33.95 326.02-33.95 337.77-16.35Q338.77-14.9 339.8-13.28 340.82-11.65 341.82-10.15L341.82-10.15Q341.72-11.75 341.62-13.38 341.52-15 341.52-16.15L341.52-16.15ZM350.57 0L363.57-33.85 368.27-33.85 381.32 0 374.97 0 371.87-8.85 359.67-8.85 356.47 0 350.57 0ZM361.27-13.25L370.32-13.25Q368.72-17.75 367.57-21.43 366.42-25.1 365.82-27.2L365.82-27.2Q365.12-24.95 363.97-21.3 362.82-17.65 361.27-13.25L361.27-13.25ZM404.97-30.7L401.92-27.05Q400.72-28.35 399.39-29.03 398.07-29.7 396.32-29.7L396.32-29.7Q394.17-29.7 392.69-28.73 391.22-27.75 390.32-26.03 389.42-24.3 389.02-22 388.62-19.7 388.62-17.05L388.62-17.05Q388.62-14.4 388.99-12.1 389.37-9.8 390.29-8.05 391.22-6.3 392.79-5.3 394.37-4.3 396.77-4.3L396.77-4.3Q397.92-4.3 398.97-4.5 400.02-4.7 400.89-4.93 401.77-5.15 402.34-5.35 402.92-5.55 403.07-5.6L403.07-5.6 404.47-1.4 403.82-1.15Q403.17-0.9 401.99-0.58 400.82-0.25 399.19 0.03 397.57 0.3 395.62 0.3L395.62 0.3Q388.92 0.3 385.54-3.98 382.17-8.25 382.17-16.5L382.17-16.5Q382.17-20.45 383.07-23.73 383.97-27 385.79-29.35 387.62-31.7 390.39-33 393.17-34.3 396.92-34.3L396.92-34.3Q399.92-34.3 401.84-33.2 403.77-32.1 404.97-30.7L404.97-30.7ZM409.46 0L409.46-33.85 415.41-33.85 415.41 0 409.46 0ZM432.91-33.85Q432.11-30.1 431.14-27.48 430.16-24.85 429.01-23.03 427.86-21.2 426.49-19.93 425.11-18.65 423.56-17.6L423.56-17.6 435.86 0 428.96 0 416.06-18.3 416.06-18.65Q420.66-20.35 423.19-24.23 425.71-28.1 427.06-33.85L427.06-33.85 432.91-33.85Z" opacity="1" transform="matrix(1,0,0,1,0,0)" fill="#ffffff" class="wordmark-text-0" data-fill-palette-color="primary" id="text-0"></path></svg></g></svg></g></svg></g></svg></g><g transform="matrix(1,0,0,1,140.6721399100657,0)"><svg viewBox="0 0 114.17572017986853 114.17572017986853" height="114.17572017986853" width="114.17572017986853"><g><svg viewBox="0 0 114.17572017986853 114.17572017986853" height="114.17572017986853" width="114.17572017986853"><g transform="matrix(1,0,0,1,30.176384761253342,30.176724815328953)"><svg viewBox="0 0 53.82295065736185 53.82227054921063" height="53.82227054921063" width="53.82295065736185"><g><svg xmlns="http://www.w3.org/2000/svg" xmlns:xlink="http://www.w3.org/1999/xlink" version="1.1" x="0" y="0" viewBox="0 0 32.000404357910156 32" enable-background="new 0 0 32 32" xml:space="preserve" width="53.82295065736185" height="53.82227054921063" class="icon-s-0" data-fill-palette-color="accent" id="s-0"><g fill="#ffffff" data-fill-palette-color="accent"><path fill="#ffffff" d="M29.5 21h-2.691c-0.045-0.239-0.1-0.473-0.16-0.706l4.799-2.399c0.494-0.247 0.693-0.848 0.447-1.342-0.248-0.494-0.846-0.692-1.342-0.447l-4.578 2.288C24.229 14.626 20.42 12 16 12c-5.382 0-9.865 3.888-10.809 9H2.5C1.122 21 0 22.121 0 23.5c0 0.49 0.18 0.963 0.505 1.329L4 28.761V29.5C4 30.879 5.122 32 6.5 32h19c1.379 0 2.5-1.121 2.5-2.5v-0.739l3.494-3.932C31.82 24.463 32 23.99 32 23.5 32 22.121 30.879 21 29.5 21zM25.799 21h-0.562l0.498-0.25C25.754 20.834 25.781 20.915 25.799 21zM16 13c4.029 0 7.5 2.4 9.082 5.841l-0.891 0.445C22.775 16.171 19.645 14 16 14c-4.282 0-7.859 2.993-8.77 7H6.202C7.131 16.441 11.171 13 16 13zM20.576 21c-0.773-1.763-2.531-3-4.576-3s-3.802 1.237-4.576 3H10.35c0.826-2.326 3.043-4 5.65-4 2.465 0 4.588 1.496 5.508 3.627L20.764 21H20.576zM16 20c-0.883 0-1.67 0.391-2.22 1h-1.224c0.694-1.189 1.97-2 3.444-2 1.473 0 2.75 0.811 3.443 2h-1.225C17.67 20.391 16.883 20 16 20zM16 16c-3.165 0-5.842 2.112-6.705 5H8.263c0.892-3.444 4.017-6 7.737-6 3.246 0 6.043 1.948 7.295 4.734l-0.893 0.446C21.314 17.723 18.855 16 16 16zM26 28v1.5c0 0.276-0.225 0.5-0.5 0.5h-19C6.224 30 6 29.776 6 29.5V28l-4-4.5C2 23.224 2.224 23 2.5 23H5h1 1 1 1 1 1 1 1 6 1 1 1 1 1 1 1 1 2.5c0.275 0 0.5 0.224 0.5 0.5L26 28z" data-fill-palette-color="accent"></path><path fill="#ffffff" d="M7.977 11.712c0.003 0.006 0.005 0.012 0.008 0.018 0 0 0.001 0 0.002 0C8.07 11.89 8.236 12 8.43 12c0.277 0 0.502-0.226 0.502-0.503 0-0.043-0.007-0.085-0.018-0.125 0.002-0.007 0.002-0.013 0-0.02-0.375-0.882-0.019-1.85 0.419-2.892 0.473-1.126 0.98-2.376 0.422-3.647C9.684 4.63 9.507 4.5 9.299 4.5c-0.271 0-0.49 0.22-0.49 0.49 0 0.06 0.012 0.116 0.032 0.169 0 0.002 0 0.004 0.001 0.006 0.001 0.003 0.002 0.006 0.003 0.009C8.847 5.178 8.848 5.182 8.85 5.186c0.404 0.909 0.013 1.841-0.428 2.893C7.956 9.188 7.44 10.417 7.959 11.67 7.965 11.685 7.97 11.698 7.977 11.712z" data-fill-palette-color="accent"></path><path fill="#ffffff" d="M20.154 11.566c0.004 0.006 0.006 0.012 0.008 0.018h0.002c0.084 0.16 0.25 0.271 0.443 0.271 0.277 0 0.504-0.226 0.504-0.503 0-0.043-0.008-0.085-0.018-0.125 0.002-0.007 0.002-0.013-0.002-0.02-0.373-0.882-0.018-1.85 0.42-2.892 0.473-1.126 0.98-2.376 0.422-3.647-0.072-0.184-0.248-0.313-0.457-0.313-0.27 0-0.49 0.22-0.49 0.49 0 0.06 0.014 0.116 0.033 0.169 0 0.002 0 0.004 0 0.006 0.002 0.003 0.002 0.006 0.004 0.009 0.002 0.004 0.004 0.008 0.004 0.012 0.404 0.909 0.014 1.841-0.428 2.893-0.465 1.109-0.98 2.339-0.461 3.592C20.143 11.539 20.148 11.553 20.154 11.566z" data-fill-palette-color="accent"></path><path fill="#ffffff" d="M15.019 7.212c0.003 0.006 0.005 0.012 0.008 0.018 0 0 0.001 0 0.002 0 0.084 0.16 0.25 0.271 0.443 0.271 0.277 0 0.502-0.226 0.502-0.503 0-0.043-0.007-0.085-0.018-0.125 0.002-0.007 0.002-0.013 0-0.02-0.375-0.882-0.019-1.85 0.419-2.892 0.473-1.126 0.98-2.376 0.422-3.647C16.725 0.13 16.549 0 16.34 0c-0.27 0-0.49 0.22-0.49 0.49 0 0.06 0.012 0.116 0.032 0.169 0 0.002 0 0.004 0.001 0.006 0.001 0.003 0.002 0.006 0.003 0.009 0.001 0.004 0.003 0.008 0.004 0.012 0.404 0.909 0.013 1.841-0.428 2.893-0.466 1.109-0.982 2.339-0.462 3.592C15.007 7.185 15.012 7.198 15.019 7.212z" data-fill-palette-color="accent"></path></g></svg></g></svg></g><g><path d="M2.296 38.476c0.22-0.636 0.508-1.143 0.864-1.52 0.362-0.375 0.78-0.647 1.254-0.814 0.472-0.161 1.002-0.218 1.591-0.169 0.581 0.053 1.205 0.194 1.873 0.425v0c0.661 0.228 1.24 0.51 1.738 0.844 0.496 0.34 0.885 0.732 1.169 1.176 0.277 0.441 0.445 0.936 0.502 1.484 0.051 0.546-0.035 1.14-0.257 1.783v0c-0.22 0.636-0.502 1.148-0.848 1.536-0.346 0.388-0.754 0.663-1.225 0.824-0.465 0.163-0.986 0.223-1.563 0.178-0.568-0.048-1.192-0.19-1.873-0.425v0c-0.661-0.228-1.244-0.511-1.747-0.847-0.502-0.343-0.901-0.738-1.198-1.185-0.296-0.448-0.473-0.946-0.53-1.494-0.057-0.548 0.026-1.147 0.251-1.796zM3.406 39.06c-0.128 0.371-0.153 0.708-0.075 1.011 0.079 0.302 0.236 0.582 0.471 0.839 0.237 0.251 0.54 0.476 0.909 0.674 0.369 0.198 0.78 0.375 1.233 0.532v0c0.434 0.15 0.857 0.264 1.267 0.342 0.412 0.072 0.793 0.08 1.143 0.025 0.35-0.055 0.66-0.188 0.931-0.397 0.272-0.216 0.484-0.545 0.636-0.985v0c0.126-0.365 0.154-0.701 0.084-1.007-0.079-0.302-0.231-0.577-0.456-0.824-0.229-0.255-0.525-0.481-0.886-0.676-0.362-0.196-0.767-0.371-1.214-0.526v0c-0.434-0.15-0.861-0.262-1.28-0.336-0.416-0.08-0.806-0.095-1.168-0.044-0.357 0.053-0.673 0.183-0.949 0.39-0.278 0.214-0.494 0.541-0.646 0.982z" fill="#ffffff" data-fill-palette-color="accent"></path><path d="M13.311 35.95l-7.904-4.514c0.033-0.058 0.104-0.182 0.213-0.373 0.107-0.2 0.229-0.421 0.368-0.665 0.135-0.237 0.27-0.479 0.402-0.725 0.139-0.243 0.253-0.443 0.342-0.598v0c0.548-0.96 1.138-1.556 1.769-1.787 0.63-0.231 1.287-0.151 1.969 0.239v0c0.451 0.258 0.789 0.6 1.013 1.027 0.224 0.427 0.264 0.941 0.12 1.542v0c0.253-0.147 0.537-0.242 0.853-0.284 0.313-0.051 0.675-0.067 1.086-0.047 0.405 0.016 0.865 0.057 1.38 0.121 0.512 0.07 1.09 0.139 1.734 0.208v0l-0.857 1.501c-0.765-0.084-1.424-0.153-1.976-0.208-0.546-0.051-1.01-0.059-1.39-0.023-0.378 0.03-0.691 0.115-0.941 0.256-0.244 0.145-0.448 0.362-0.613 0.651v0l-0.193 0.339 3.418 1.952zM7.171 30.603l2.499 1.427 0.516-0.903c0.248-0.434 0.341-0.826 0.28-1.175-0.055-0.346-0.274-0.628-0.656-0.846v0c-0.174-0.099-0.354-0.172-0.543-0.218-0.188-0.046-0.378-0.051-0.568-0.013-0.193 0.043-0.379 0.14-0.557 0.291-0.184 0.148-0.359 0.367-0.525 0.656v0z" fill="#ffffff" data-fill-palette-color="accent"></path><path d="M17.751 28.799l-6.995-5.825c0.043-0.051 0.13-0.156 0.262-0.315 0.123-0.158 0.267-0.337 0.433-0.536 0.166-0.2 0.336-0.409 0.51-0.629 0.179-0.215 0.335-0.402 0.467-0.56v0c0.976-1.172 1.988-1.799 3.036-1.881 1.052-0.077 2.155 0.364 3.306 1.323v0c1.147 0.955 1.786 1.977 1.919 3.067 0.133 1.09-0.315 2.252-1.342 3.486v0c-0.175 0.21-0.35 0.415-0.526 0.615-0.176 0.201-0.334 0.385-0.474 0.555-0.141 0.169-0.262 0.315-0.365 0.437-0.107 0.119-0.185 0.206-0.231 0.263zM13.221 21.84c-0.132 0.159-0.24 0.294-0.325 0.406-0.084 0.112-0.152 0.198-0.204 0.26v0l5.176 4.31c0.069-0.073 0.155-0.17 0.257-0.294 0.098-0.118 0.243-0.292 0.435-0.522v0c0.601-0.722 0.83-1.429 0.686-2.12-0.138-0.687-0.63-1.383-1.475-2.086v0c-0.399-0.332-0.797-0.594-1.192-0.785-0.386-0.192-0.774-0.294-1.163-0.305-0.389-0.012-0.765 0.07-1.128 0.244-0.367 0.18-0.723 0.477-1.067 0.893z" fill="#ffffff" data-fill-palette-color="accent"></path><path d="M24.016 21.869l-5.871-6.956 4.13-3.487 0.78 0.924-2.909 2.455 1.644 1.948 2.397-2.024 0.634 1.06-2.245 1.895 1.882 2.23 3.062-2.585 0.78 0.924z" fill="#ffffff" data-fill-palette-color="accent"></path><path d="M30.043 17.191l-4.632-7.836c0.057-0.034 0.181-0.107 0.369-0.219 0.192-0.121 0.408-0.253 0.649-0.395 0.235-0.139 0.471-0.283 0.709-0.431 0.241-0.142 0.439-0.259 0.593-0.351v0c0.952-0.563 1.759-0.788 2.421-0.676 0.662 0.112 1.193 0.506 1.593 1.182v0c0.264 0.447 0.388 0.912 0.371 1.394-0.017 0.482-0.236 0.948-0.658 1.399v0c0.292-0.003 0.586 0.056 0.881 0.176 0.297 0.11 0.62 0.276 0.967 0.496 0.344 0.215 0.724 0.478 1.14 0.789 0.41 0.315 0.878 0.661 1.403 1.039v0l-1.488 0.88c-0.623-0.452-1.161-0.838-1.613-1.159-0.449-0.315-0.848-0.551-1.197-0.709-0.343-0.161-0.658-0.242-0.944-0.242-0.283 0.005-0.568 0.092-0.856 0.262v0l-0.335 0.198 2.004 3.389zM27.356 9.504l1.465 2.478 0.895-0.529c0.43-0.254 0.705-0.548 0.824-0.883 0.123-0.328 0.073-0.682-0.15-1.06v0c-0.102-0.172-0.223-0.325-0.364-0.458-0.141-0.133-0.303-0.231-0.487-0.293-0.189-0.058-0.399-0.066-0.628-0.023-0.233 0.037-0.493 0.141-0.78 0.311v0z" fill="#ffffff" data-fill-palette-color="accent"></path><path d="M43.382 11.094l-0.916-3.354-4.201-4.685 1.678-0.458 2.928 3.478 0.792-4.494 1.629-0.445-1.259 6.238 0.901 3.296z" fill="#ffffff" data-fill-palette-color="accent"></path><path d="M51.336 0.222c0.669-0.075 1.25-0.032 1.744 0.127 0.494 0.166 0.919 0.427 1.273 0.783 0.348 0.357 0.627 0.812 0.836 1.365 0.202 0.547 0.342 1.172 0.42 1.873v0c0.077 0.695 0.072 1.339-0.016 1.932-0.095 0.594-0.281 1.114-0.56 1.561-0.279 0.44-0.654 0.804-1.125 1.09-0.471 0.28-1.045 0.458-1.72 0.534v0c-0.669 0.075-1.252 0.039-1.751-0.106-0.499-0.145-0.922-0.397-1.271-0.754-0.347-0.35-0.625-0.795-0.832-1.335-0.2-0.534-0.34-1.159-0.42-1.873v0c-0.077-0.695-0.073-1.343 0.015-1.942 0.094-0.6 0.28-1.13 0.556-1.59 0.277-0.46 0.651-0.833 1.122-1.121 0.471-0.287 1.047-0.469 1.729-0.544zM51.285 1.474c-0.391 0.044-0.705 0.166-0.945 0.367-0.239 0.201-0.424 0.463-0.556 0.786-0.125 0.322-0.198 0.692-0.218 1.11-0.02 0.418-0.004 0.865 0.049 1.341v0c0.051 0.457 0.129 0.887 0.235 1.291 0.112 0.403 0.268 0.751 0.468 1.044 0.2 0.293 0.453 0.516 0.758 0.67 0.312 0.153 0.7 0.204 1.163 0.151v0c0.384-0.043 0.699-0.162 0.946-0.356 0.239-0.201 0.422-0.456 0.548-0.765 0.132-0.316 0.209-0.68 0.23-1.092 0.021-0.411 0.006-0.852-0.047-1.321v0c-0.051-0.457-0.133-0.89-0.245-1.3-0.106-0.41-0.26-0.769-0.462-1.075-0.201-0.299-0.454-0.529-0.76-0.689-0.313-0.16-0.701-0.213-1.164-0.162z" fill="#ffffff" data-fill-palette-color="accent"></path><path d="M58.91 0l1.574 0.121-0.433 5.619c-0.064 0.83 0.067 1.435 0.392 1.814 0.318 0.379 0.78 0.591 1.384 0.638v0c0.604 0.047 1.068-0.122 1.392-0.504 0.317-0.383 0.503-0.937 0.558-1.661v0l0.433-5.619 1.604 0.123-0.442 5.739c-0.036 0.465-0.133 0.898-0.29 1.3-0.151 0.403-0.378 0.749-0.682 1.04-0.296 0.291-0.681 0.509-1.152 0.653-0.466 0.151-1.031 0.201-1.696 0.15v0c-0.631-0.049-1.152-0.182-1.562-0.4-0.411-0.212-0.738-0.484-0.979-0.817-0.242-0.333-0.4-0.709-0.475-1.129-0.081-0.42-0.104-0.863-0.068-1.328v0z" fill="#ffffff" data-fill-palette-color="accent"></path><path d="M67.475 10.179l2.364-8.79c0.064 0.017 0.203 0.054 0.414 0.111 0.22 0.052 0.466 0.115 0.736 0.188 0.264 0.071 0.532 0.14 0.804 0.206 0.27 0.073 0.492 0.132 0.666 0.179v0c1.068 0.287 1.793 0.706 2.176 1.258 0.383 0.551 0.472 1.207 0.268 1.965v0c-0.135 0.502-0.381 0.915-0.737 1.24-0.356 0.325-0.843 0.494-1.461 0.508v0c0.206 0.207 0.37 0.458 0.491 0.752 0.129 0.29 0.236 0.636 0.321 1.039 0.087 0.396 0.164 0.851 0.233 1.366 0.062 0.513 0.141 1.09 0.238 1.73v0l-1.669-0.449c-0.113-0.761-0.212-1.416-0.3-1.964-0.089-0.541-0.199-0.992-0.33-1.351-0.125-0.358-0.287-0.639-0.487-0.845-0.202-0.199-0.463-0.342-0.785-0.428v0l-0.376-0.101-1.023 3.802zM71.092 2.885l-0.748 2.779 1.004 0.27c0.482 0.13 0.885 0.121 1.208-0.027 0.321-0.141 0.538-0.424 0.652-0.849v0c0.052-0.193 0.076-0.386 0.073-0.581-0.003-0.194-0.047-0.378-0.13-0.552-0.091-0.176-0.232-0.331-0.424-0.466-0.19-0.141-0.446-0.254-0.767-0.341v0z" fill="#ffffff" data-fill-palette-color="accent"></path><path d="M86.416 7.797v0c0.278 0.158 0.527 0.334 0.746 0.528 0.219 0.194 0.412 0.38 0.579 0.559 0.169 0.188 0.306 0.358 0.411 0.51 0.105 0.152 0.174 0.26 0.206 0.325v0l-1.146 0.681-0.103-0.162c-0.071-0.117-0.168-0.257-0.291-0.419-0.123-0.162-0.267-0.325-0.435-0.489-0.164-0.17-0.333-0.304-0.506-0.403v0c-0.284-0.161-0.568-0.235-0.852-0.22-0.278 0.018-0.497 0.166-0.655 0.444v0c-0.201 0.353-0.251 0.704-0.151 1.052 0.097 0.354 0.334 0.761 0.709 1.22v0c0.243 0.299 0.447 0.588 0.611 0.865 0.17 0.281 0.289 0.556 0.359 0.825 0.072 0.278 0.083 0.561 0.035 0.847-0.039 0.284-0.153 0.591-0.341 0.922v0c-0.168 0.295-0.392 0.555-0.672 0.778-0.271 0.221-0.581 0.382-0.93 0.483-0.351 0.092-0.728 0.114-1.132 0.069-0.406-0.055-0.823-0.204-1.251-0.448v0c-0.301-0.171-0.57-0.366-0.806-0.585-0.239-0.213-0.447-0.427-0.623-0.642-0.174-0.206-0.319-0.396-0.435-0.569-0.107-0.176-0.188-0.31-0.242-0.403v0l1.108-0.795 0.144 0.232c0.093 0.16 0.214 0.344 0.364 0.552 0.15 0.208 0.315 0.417 0.494 0.626 0.183 0.204 0.358 0.353 0.527 0.449v0c0.411 0.234 0.776 0.307 1.093 0.22 0.318-0.087 0.581-0.313 0.789-0.678v0c0.099-0.174 0.156-0.341 0.17-0.501 0.02-0.157 0.005-0.312-0.047-0.464-0.046-0.149-0.12-0.302-0.221-0.459-0.102-0.158-0.223-0.322-0.363-0.494v0c-0.262-0.348-0.49-0.674-0.686-0.977-0.192-0.309-0.33-0.613-0.412-0.912-0.088-0.303-0.115-0.606-0.081-0.909 0.04-0.299 0.159-0.622 0.357-0.97v0c0.161-0.284 0.375-0.518 0.642-0.703 0.272-0.182 0.573-0.306 0.901-0.373 0.323-0.069 0.669-0.071 1.039-0.006 0.367 0.056 0.733 0.187 1.097 0.394z" fill="#ffffff" data-fill-palette-color="accent"></path><path d="M92.951 18.532l2.967-3.718 1.241 1.008-5.743 7.075-1.032-0.837 0.635-5.65c0.034-0.307 0.077-0.65 0.127-1.029 0.045-0.384 0.084-0.738 0.117-1.063v0c-0.16 0.239-0.328 0.489-0.505 0.748-0.182 0.256-0.363 0.495-0.543 0.718v0l-2.967 3.718-1.241-1.008 5.749-7.083 0.97 0.787-0.527 5.66c-0.024 0.315-0.056 0.645-0.096 0.99-0.045 0.341-0.082 0.672-0.11 0.992v0c0.17-0.231 0.34-0.466 0.509-0.707 0.169-0.24 0.319-0.44 0.449-0.601z" fill="#ffffff" data-fill-palette-color="accent"></path><path d="M92.429 23.995l9.269-3.029 0.794 0.977-4.844 8.471-1.078-1.326 1.316-2.151-2.068-2.543-2.387 0.833zM97.004 23.983l1.538 1.892c0.45-0.735 0.863-1.388 1.24-1.96 0.381-0.576 0.686-1.026 0.913-1.348v0c-0.395 0.158-0.911 0.363-1.548 0.615-0.637 0.252-1.351 0.519-2.143 0.801z" fill="#ffffff" data-fill-palette-color="accent"></path><path d="M108.402 32.397l-1.259-0.212c0.09-0.307 0.128-0.592 0.114-0.854-0.018-0.268-0.106-0.536-0.264-0.807v0c-0.195-0.333-0.435-0.571-0.719-0.714-0.281-0.137-0.598-0.198-0.952-0.183-0.345 0.017-0.713 0.101-1.103 0.252-0.393 0.145-0.794 0.338-1.203 0.577v0c-0.414 0.242-0.779 0.495-1.096 0.757-0.323 0.266-0.577 0.55-0.763 0.852-0.192 0.305-0.292 0.622-0.3 0.952-0.014 0.332 0.089 0.685 0.307 1.059v0c0.104 0.178 0.218 0.339 0.341 0.483 0.123 0.144 0.245 0.273 0.366 0.388 0.115 0.118 0.213 0.211 0.292 0.281 0.079 0.069 0.133 0.115 0.161 0.137v0l-0.787 0.889-0.147-0.111c-0.101-0.08-0.229-0.194-0.385-0.342-0.154-0.157-0.328-0.349-0.521-0.574-0.185-0.224-0.367-0.488-0.545-0.793v0c-0.606-1.035-0.731-2.007-0.377-2.917 0.355-0.91 1.17-1.739 2.447-2.486v0c0.609-0.357 1.207-0.614 1.794-0.773 0.59-0.152 1.151-0.196 1.684-0.129 0.527 0.07 1.017 0.261 1.471 0.575 0.45 0.308 0.845 0.752 1.185 1.332v0c0.273 0.466 0.41 0.898 0.413 1.298 0.005 0.391-0.046 0.745-0.154 1.063z" fill="#ffffff" data-fill-palette-color="accent"></path><path d="M102.009 38.376l8.514-3.222 0.566 1.496-8.514 3.221zM112.754 41.051c-0.679 0.107-1.271 0.161-1.777 0.16-0.497 0.003-0.938-0.033-1.323-0.108-0.378-0.078-0.717-0.192-1.016-0.342-0.299-0.15-0.584-0.32-0.855-0.51v0l-3.263 4.76-0.654-1.729 3.371-4.982 0.093-0.036c0.577 0.658 1.269 1.076 2.077 1.255 0.808 0.178 1.739 0.2 2.792 0.065v0z" fill="#ffffff" data-fill-palette-color="accent"></path><path d="M13.483 74.41c0.22 0.636 0.306 1.219 0.258 1.75-0.051 0.525-0.215 0.998-0.492 1.419-0.269 0.425-0.653 0.801-1.153 1.129-0.493 0.326-1.077 0.606-1.75 0.839v0c-0.667 0.231-1.304 0.367-1.91 0.408-0.606 0.041-1.158-0.025-1.656-0.198-0.506-0.177-0.947-0.465-1.324-0.863-0.386-0.402-0.691-0.927-0.916-1.576v0c-0.222-0.642-0.319-1.225-0.29-1.75 0.036-0.527 0.189-1 0.461-1.418 0.269-0.425 0.647-0.799 1.133-1.123 0.481-0.322 1.064-0.601 1.751-0.839v0c0.667-0.231 1.307-0.368 1.919-0.411 0.613-0.043 1.174 0.02 1.684 0.188 0.518 0.173 0.97 0.46 1.356 0.863 0.392 0.4 0.702 0.927 0.929 1.582zM12.231 74.642c-0.131-0.378-0.322-0.664-0.573-0.859-0.255-0.187-0.555-0.308-0.898-0.365-0.342-0.051-0.722-0.039-1.141 0.036-0.412 0.072-0.848 0.188-1.307 0.347v0c-0.441 0.153-0.846 0.325-1.217 0.517-0.375 0.2-0.683 0.43-0.924 0.69-0.248 0.262-0.415 0.563-0.501 0.903-0.08 0.338-0.043 0.73 0.112 1.178v0c0.127 0.365 0.315 0.645 0.566 0.84 0.253 0.201 0.544 0.33 0.874 0.385 0.336 0.053 0.711 0.046 1.124-0.02 0.412-0.072 0.845-0.187 1.298-0.344v0c0.434-0.15 0.842-0.327 1.223-0.53 0.383-0.196 0.702-0.426 0.956-0.69 0.254-0.264 0.423-0.57 0.507-0.916 0.087-0.34 0.053-0.731-0.099-1.172z" fill="#ffffff" data-fill-palette-color="accent"></path><path d="M7.48 84.113l7.978-4.567c0.033 0.058 0.109 0.183 0.227 0.376 0.118 0.193 0.247 0.411 0.386 0.654 0.139 0.243 0.278 0.486 0.417 0.729 0.145 0.239 0.262 0.437 0.351 0.593v0c0.559 0.977 0.776 1.797 0.649 2.461-0.123 0.669-0.529 1.201-1.217 1.595v0c-0.457 0.261-0.928 0.377-1.412 0.348-0.488-0.02-0.958-0.246-1.413-0.677v0c-0.001 0.292-0.062 0.588-0.182 0.888-0.12 0.299-0.292 0.624-0.514 0.973-0.225 0.344-0.499 0.723-0.822 1.138-0.317 0.412-0.669 0.882-1.057 1.412v0l-0.874-1.527c0.466-0.62 0.864-1.159 1.193-1.615 0.327-0.448 0.572-0.845 0.735-1.192 0.168-0.35 0.255-0.668 0.259-0.955-0.001-0.283-0.086-0.573-0.255-0.867v0l-0.193-0.338-3.452 1.976zM15.283 81.512l-2.515 1.439 0.521 0.911c0.252 0.439 0.543 0.721 0.876 0.846 0.336 0.13 0.694 0.086 1.075-0.133v0c0.173-0.099 0.329-0.223 0.467-0.371 0.135-0.139 0.235-0.3 0.3-0.482 0.061-0.188 0.074-0.4 0.04-0.633-0.043-0.236-0.147-0.499-0.313-0.788v0z" fill="#ffffff" data-fill-palette-color="accent"></path><path d="M12.594 92.229l7.059-5.889c0.043 0.051 0.133 0.154 0.27 0.308 0.137 0.154 0.291 0.334 0.462 0.539 0.166 0.199 0.339 0.407 0.519 0.621 0.184 0.211 0.345 0.398 0.481 0.562v0c0.986 1.182 1.421 2.302 1.307 3.36-0.11 1.064-0.746 2.08-1.907 3.048v0c-1.161 0.969-2.296 1.417-3.406 1.346-1.105-0.067-2.177-0.722-3.214-1.965v0c-0.179-0.215-0.352-0.427-0.517-0.635-0.166-0.209-0.321-0.4-0.466-0.575-0.141-0.169-0.265-0.317-0.371-0.445-0.097-0.127-0.169-0.219-0.217-0.275zM20.335 88.998c-0.137-0.164-0.252-0.297-0.347-0.4-0.09-0.107-0.16-0.192-0.211-0.253v0l-5.225 4.359c0.054 0.085 0.132 0.189 0.234 0.312 0.098 0.118 0.243 0.292 0.436 0.522v0c0.61 0.731 1.273 1.089 1.988 1.074 0.706-0.017 1.484-0.379 2.333-1.088v0c0.404-0.337 0.74-0.683 1.009-1.037 0.259-0.355 0.432-0.725 0.519-1.109 0.082-0.38 0.067-0.767-0.044-1.161-0.115-0.398-0.346-0.805-0.692-1.219z" fill="#ffffff" data-fill-palette-color="accent"></path><path d="M19.699 99.998l5.923-7.03 4.18 3.522-0.785 0.932-2.942-2.479-1.655 1.964 2.423 2.041-0.959 0.812-2.262-1.906-1.899 2.255 3.094 2.607-0.785 0.932z" fill="#ffffff" data-fill-palette-color="accent"></path><path d="M26.637 105.317l4.671-7.918c0.057 0.034 0.185 0.105 0.384 0.215 0.198 0.109 0.418 0.235 0.659 0.377 0.241 0.142 0.482 0.284 0.723 0.427 0.244 0.136 0.444 0.25 0.599 0.342v0c0.97 0.572 1.564 1.178 1.781 1.817 0.224 0.643 0.135 1.305-0.268 1.988v0c-0.267 0.453-0.619 0.787-1.055 1.002-0.434 0.224-0.954 0.261-1.562 0.111v0c0.144 0.255 0.237 0.542 0.281 0.861 0.043 0.32 0.055 0.686 0.035 1.1-0.026 0.41-0.076 0.876-0.15 1.396-0.072 0.515-0.145 1.098-0.221 1.75v0l-1.514-0.894c0.098-0.77 0.177-1.435 0.237-1.995 0.062-0.551 0.078-1.017 0.048-1.398-0.027-0.387-0.109-0.706-0.247-0.958-0.141-0.246-0.358-0.455-0.651-0.628v0l-0.335-0.198-2.021 3.425zM32.128 99.194l-1.472 2.496 0.903 0.533c0.436 0.257 0.829 0.358 1.18 0.302 0.356-0.053 0.646-0.269 0.869-0.648v0c0.102-0.172 0.176-0.357 0.222-0.553 0.049-0.188 0.056-0.377 0.022-0.568-0.04-0.194-0.133-0.384-0.279-0.57-0.154-0.184-0.375-0.361-0.662-0.53v0z" fill="#ffffff" data-fill-palette-color="accent"></path><path d="M41.599 112.096l0.927-3.393-1.252-6.225 1.687 0.461 0.763 4.527 2.996-3.501 1.658 0.453-4.309 4.779-0.908 3.326z" fill="#ffffff" data-fill-palette-color="accent"></path><path d="M52.643 104.736c0.669 0.075 1.232 0.248 1.691 0.521 0.452 0.272 0.808 0.623 1.069 1.054 0.268 0.425 0.442 0.934 0.523 1.526 0.082 0.586 0.084 1.233 0.005 1.941v0c-0.078 0.702-0.229 1.335-0.454 1.9-0.224 0.565-0.521 1.034-0.891 1.409-0.378 0.38-0.827 0.655-1.349 0.824-0.529 0.176-1.134 0.225-1.816 0.15v0c-0.675-0.075-1.243-0.239-1.705-0.492-0.46-0.259-0.821-0.601-1.082-1.026-0.268-0.425-0.443-0.928-0.525-1.507-0.084-0.572-0.085-1.219-0.005-1.941v0c0.078-0.702 0.23-1.338 0.455-1.909 0.225-0.571 0.523-1.051 0.894-1.439 0.379-0.393 0.833-0.678 1.362-0.853 0.53-0.182 1.139-0.235 1.828-0.158zM52.314 105.966c-0.397-0.044-0.738 0.005-1.021 0.147-0.278 0.15-0.517 0.368-0.717 0.654-0.193 0.287-0.346 0.635-0.458 1.045-0.112 0.403-0.195 0.846-0.249 1.33v0c-0.052 0.463-0.071 0.904-0.057 1.32 0.02 0.424 0.095 0.802 0.225 1.132 0.13 0.336 0.33 0.617 0.6 0.841 0.271 0.218 0.641 0.353 1.111 0.405v0c0.384 0.043 0.718-0.007 1.002-0.149 0.291-0.142 0.532-0.35 0.723-0.623 0.192-0.28 0.348-0.621 0.466-1.024 0.112-0.403 0.195-0.843 0.248-1.32v0c0.051-0.457 0.067-0.901 0.048-1.332-0.012-0.43-0.083-0.817-0.212-1.159-0.129-0.343-0.332-0.627-0.609-0.853-0.27-0.225-0.636-0.363-1.1-0.414z" fill="#ffffff" data-fill-palette-color="accent"></path><path d="M57.991 105.172l1.594-0.123 0.435 5.669c0.065 0.844 0.287 1.428 0.666 1.753 0.38 0.332 0.872 0.474 1.476 0.428v0c0.618-0.047 1.057-0.288 1.318-0.723 0.261-0.434 0.363-1.017 0.306-1.747v0l-0.435-5.669 1.614-0.124 0.445 5.798c0.036 0.465 0.007 0.911-0.087 1.34-0.088 0.421-0.259 0.802-0.514 1.142-0.255 0.334-0.608 0.611-1.058 0.833-0.444 0.221-1.001 0.358-1.673 0.409v0c-0.638 0.049-1.179-0.003-1.625-0.156-0.439-0.153-0.804-0.376-1.094-0.667-0.29-0.298-0.508-0.649-0.652-1.053-0.145-0.41-0.235-0.847-0.271-1.312v0z" fill="#ffffff" data-fill-palette-color="accent"></path><path d="M69.198 113.028l-2.389-8.878c0.064-0.017 0.205-0.059 0.422-0.123 0.217-0.065 0.461-0.134 0.731-0.207 0.27-0.073 0.54-0.145 0.811-0.218 0.268-0.079 0.49-0.142 0.663-0.189v0c1.087-0.292 1.935-0.293 2.545-0.002 0.616 0.29 1.027 0.817 1.233 1.583v0c0.137 0.508 0.129 0.993-0.023 1.454-0.144 0.466-0.481 0.864-1.014 1.194v0c0.283 0.076 0.553 0.21 0.812 0.402 0.259 0.193 0.529 0.441 0.811 0.745 0.275 0.305 0.573 0.667 0.892 1.084 0.318 0.411 0.683 0.872 1.096 1.382v0l-1.698 0.457c-0.481-0.609-0.901-1.13-1.26-1.566-0.35-0.43-0.672-0.768-0.965-1.013-0.295-0.252-0.581-0.416-0.857-0.493-0.274-0.071-0.576-0.062-0.904 0.026v0l-0.376 0.101 1.033 3.84zM68.666 104.82l0.753 2.799 1.013-0.273c0.489-0.132 0.836-0.342 1.041-0.632 0.211-0.291 0.26-0.649 0.145-1.074v0c-0.052-0.193-0.132-0.375-0.24-0.546-0.1-0.166-0.23-0.304-0.39-0.412-0.167-0.107-0.367-0.174-0.602-0.2-0.239-0.018-0.52 0.016-0.842 0.102v0z" fill="#ffffff" data-fill-palette-color="accent"></path><path d="M80.539 98.655v0c0.278-0.158 0.556-0.281 0.835-0.371 0.284-0.093 0.551-0.163 0.799-0.212 0.245-0.055 0.459-0.088 0.644-0.101 0.188-0.007 0.322-0.007 0.402 0.001v0l-0.01 1.339-0.2 0.01c-0.131-0.002-0.301 0.01-0.509 0.036-0.202 0.023-0.417 0.061-0.647 0.115-0.227 0.06-0.433 0.142-0.618 0.247v0c-0.284 0.161-0.492 0.368-0.625 0.619-0.133 0.252-0.119 0.519 0.042 0.803v0c0.201 0.353 0.481 0.577 0.841 0.672 0.354 0.098 0.83 0.099 1.428 0.005v0c0.385-0.05 0.742-0.076 1.07-0.078 0.328-0.002 0.627 0.039 0.897 0.122 0.276 0.081 0.527 0.214 0.755 0.399 0.228 0.185 0.435 0.442 0.622 0.773v0c0.171 0.301 0.281 0.63 0.33 0.985 0.049 0.355 0.024 0.71-0.074 1.064-0.092 0.351-0.265 0.687-0.52 1.007-0.251 0.326-0.594 0.613-1.028 0.86v0c-0.307 0.174-0.618 0.309-0.932 0.403-0.308 0.091-0.599 0.16-0.871 0.207-0.272 0.047-0.514 0.073-0.725 0.078-0.212 0.005-0.368 0.006-0.47 0.003v0l-0.121-1.368 0.273-0.005c0.191-0.001 0.414-0.013 0.669-0.035 0.259-0.017 0.525-0.053 0.8-0.11 0.272-0.047 0.492-0.118 0.66-0.213v0c0.417-0.237 0.668-0.517 0.752-0.841 0.093-0.321 0.035-0.667-0.176-1.038v0c-0.099-0.174-0.213-0.308-0.343-0.402-0.128-0.104-0.27-0.172-0.427-0.206-0.157-0.033-0.329-0.047-0.517-0.04-0.188 0.007-0.391 0.027-0.61 0.059v0c-0.439 0.05-0.843 0.08-1.212 0.091-0.364 0.007-0.698-0.029-1.004-0.108-0.305-0.079-0.581-0.214-0.827-0.404-0.24-0.193-0.459-0.464-0.656-0.811v0c-0.164-0.29-0.258-0.596-0.281-0.921-0.017-0.327 0.028-0.652 0.137-0.974 0.112-0.316 0.288-0.619 0.529-0.909 0.241-0.29 0.547-0.54 0.918-0.751z" fill="#ffffff" data-fill-palette-color="accent"></path><path d="M91.671 96.631l-3.057-3.709 1.258-1.019 5.793 7.151-1.049 0.849-5.451-1.808c-0.298-0.093-0.63-0.206-0.994-0.339-0.366-0.124-0.707-0.238-1.023-0.342v0c0.201 0.206 0.41 0.427 0.627 0.662 0.218 0.227 0.419 0.454 0.603 0.682v0l3.056 3.71-1.258 1.018-5.804-7.167 0.986-0.798 5.483 1.705c0.307 0.094 0.626 0.196 0.955 0.306 0.329 0.11 0.65 0.215 0.962 0.315v0c-0.196-0.21-0.393-0.427-0.592-0.652-0.2-0.215-0.365-0.403-0.495-0.564z" fill="#ffffff" data-fill-palette-color="accent"></path><path d="M97.59 97.018l-4.894-8.548 0.801-0.984 9.368 3.055-1.085 1.333-2.403-0.863-2.089 2.565 1.318 2.195zM96.637 92.492l1.553-1.906c-0.816-0.295-1.547-0.569-2.194-0.82-0.647-0.261-1.151-0.469-1.513-0.626v0c0.235 0.355 0.543 0.82 0.924 1.397 0.377 0.582 0.787 1.234 1.23 1.955z" fill="#ffffff" data-fill-palette-color="accent"></path><path d="M99.884 79.332l0.442 1.221c-0.318 0.068-0.59 0.175-0.815 0.321-0.225 0.146-0.416 0.354-0.574 0.624v0c-0.199 0.339-0.291 0.667-0.277 0.985 0.02 0.321 0.12 0.631 0.3 0.929 0.189 0.296 0.446 0.582 0.771 0.858 0.319 0.272 0.685 0.53 1.099 0.773v0c0.419 0.246 0.824 0.445 1.214 0.596 0.399 0.149 0.776 0.231 1.13 0.246 0.36 0.018 0.69-0.051 0.991-0.206 0.3-0.156 0.56-0.421 0.779-0.794v0c0.105-0.178 0.191-0.359 0.26-0.543 0.06-0.181 0.113-0.351 0.159-0.509 0.046-0.158 0.081-0.289 0.103-0.391 0.019-0.112 0.033-0.181 0.041-0.208v0l1.174 0.249-0.03 0.19c-0.017 0.121-0.057 0.287-0.119 0.499-0.056 0.214-0.135 0.461-0.238 0.741-0.108 0.276-0.252 0.567-0.43 0.871v0c-0.617 1.051-1.412 1.643-2.385 1.774-0.977 0.137-2.111-0.173-3.404-0.931v0c-0.615-0.361-1.137-0.76-1.568-1.198-0.427-0.444-0.742-0.914-0.944-1.412-0.199-0.503-0.271-1.032-0.216-1.586 0.046-0.552 0.241-1.121 0.585-1.708v0c0.273-0.465 0.585-0.8 0.936-1.003 0.348-0.198 0.686-0.327 1.016-0.388z" fill="#ffffff" data-fill-palette-color="accent"></path><path d="M108.267 80.79l-8.594-3.263 0.574-1.513 8.595 3.262zM101.935 71.567c0.583 0.378 1.064 0.735 1.442 1.071 0.381 0.33 0.69 0.65 0.929 0.962 0.236 0.317 0.416 0.632 0.54 0.942 0.131 0.313 0.235 0.638 0.314 0.975v0l5.653-1.435-0.666 1.756-5.894 1.504-0.084-0.032c0.009-0.887-0.236-1.668-0.735-2.342-0.491-0.678-1.178-1.317-2.063-1.916v0z" fill="#ffffff" data-fill-palette-color="accent"></path><path d="M1.085 58.352c0-1.946 1.577-3.523 3.523-3.523 1.946 0 3.523 1.577 3.523 3.523 0 1.946-1.577 3.523-3.523 3.523-1.946 0-3.523-1.577-3.523-3.523z" fill="#ffffff" data-fill-palette-color="accent"></path><path d="M106.045 58.352c0-1.946 1.577-3.523 3.523-3.523 1.946 0 3.523 1.577 3.523 3.523 0 1.946-1.577 3.523-3.523 3.523-1.946 0-3.523-1.577-3.523-3.523z" fill="#ffffff" data-fill-palette-color="accent"></path></g></svg></g></svg></g><g></g></svg></g><defs></defs></svg><rect width="395.52" height="164.35844225638184" fill="none" stroke="none" visibility="hidden"></rect></g></svg></g></svg>